<?xml version="1.0" encoding="utf-8"?>
<!-- Generator: Adobe Illustrator 16.0.0, SVG Export Plug-In . SVG Version: 6.00 Build 0)  -->
<!DOCTYPE svg PUBLIC "-//W3C//DTD SVG 1.1//EN" "http://www.w3.org/Graphics/SVG/1.1/DTD/svg11.dtd">
<svg version="1.1" id="leaf" xmlns="http://www.w3.org/2000/svg" xmlns:xlink="http://www.w3.org/1999/xlink" x="0px" y="0px"
	 width="50px" height="28.142px" viewBox="0 0 50 28.142" enable-background="new 0 0 50 28.142" xml:space="preserve">
<g>
	
		<linearGradient id="SVGID_1_" gradientUnits="userSpaceOnUse" x1="226.9229" y1="-592.9697" x2="211.0636" y2="-566.726" gradientTransform="matrix(-0.2481 -1.0513 -0.9687 0.2693 -476.0908 392.1025)">
		<stop  offset="0" style="stop-color:#EE606C"/>
		<stop  offset="1" style="stop-color:#B73336"/>
	</linearGradient>
	<path fill="url(#SVGID_1_)" d="M50,10.772c0,0-44.095-29.238-45.818,8.623C4.182,19.395,21.409,4.181,50,10.772z"/>
	
		<radialGradient id="SVGID_2_" cx="1040.959" cy="-1033.604" r="80.9215" gradientTransform="matrix(0.1569 -1.0719 -0.9876 -0.1702 -1110.8359 992.3242)" gradientUnits="userSpaceOnUse">
		<stop  offset="0.0495" style="stop-color:#FBD0DD"/>
		<stop  offset="0.5495" style="stop-color:#EE606C"/>
		<stop  offset="0.613" style="stop-color:#E45863"/>
		<stop  offset="0.7194" style="stop-color:#CB4349"/>
		<stop  offset="0.7857" style="stop-color:#B73336"/>
		<stop  offset="1" style="stop-color:#AC1010"/>
	</radialGradient>
	<path fill="url(#SVGID_2_)" d="M49.788,10.666c-19.236-6.083-23.17,34.72-45.606,8.729C4.182,19.395,26.73-0.176,49.788,10.666z"/>
	
		<linearGradient id="SVGID_3_" gradientUnits="userSpaceOnUse" x1="216.439" y1="-545.791" x2="212.6987" y2="-622.8988" gradientTransform="matrix(-0.2481 -1.0513 -0.9687 0.2693 -476.0908 392.1025)">
		<stop  offset="0" style="stop-color:#350202"/>
		<stop  offset="0.1593" style="stop-color:#630606"/>
		<stop  offset="0.6429" style="stop-color:#EC4444"/>
		<stop  offset="1" style="stop-color:#EC4444"/>
	</linearGradient>
	<path fill="url(#SVGID_3_)" d="M2.406,21.71c-0.312,0.129-3.741,3.24-1.83,0.6c1.524-1.628,2.763-3.062,3.878-3.913
		c0.535-0.511,1.953-1.772,4.164-3.27l0,0c2.598-1.158,2.217-11.383,8.388-11.442c-4.794,0.293-5.174,7.58-6.793,10.405
		c1.789-1.101,3.952-2.258,6.453-3.303c1.231-2.153,1.685-7.491,5.36-7.522c-3.352,0.203-3.805,4.98-4.842,7.313
		c7.65-3.063,18.363-4.941,31.327-0.812c-6.964-2.049-13.563-2.461-19.141-1.725c2.907,0.122,6.243,0.948,7.546,2.283
		c-2.017-1.456-6.025-2.235-9.062-2.135c-5.31,0.873-8.865,2.734-10.799,3.595c3.619,0.686,9.594,5.173,13.828,3.391
		c-4.524,2.306-11.326-2.89-14.865-2.916c-2.186,1.045-4.09,2.155-5.675,3.199c-0.924,0.721-0.809,0.631-1.992,1.399
		c3.952,1.028,10.548,8.641,15.836,4.179c-5.513,5.125-12.712-3.237-16.631-3.604c-1.91,1.465-2.93,2.511-2.93,2.511"/>
	
		<linearGradient id="SVGID_4_" gradientUnits="userSpaceOnUse" x1="206.6196" y1="-562.2861" x2="214.7988" y2="-562.2861" gradientTransform="matrix(-0.2481 -1.0513 -0.9687 0.2693 -476.0908 392.1025)">
		<stop  offset="0" style="stop-color:#8B0B0B"/>
		<stop  offset="1" style="stop-color:#EC4444"/>
	</linearGradient>
	<path fill="url(#SVGID_4_)" d="M8.351,16.859c3.952,1.028,10.548,8.641,15.836,4.179C18.237,25.664,11.711,17.655,8.351,16.859"/>
	
		<linearGradient id="SVGID_5_" gradientUnits="userSpaceOnUse" x1="218.3628" y1="-558.5244" x2="225.085" y2="-565.854" gradientTransform="matrix(-0.2481 -1.0513 -0.9687 0.2693 -476.0908 392.1025)">
		<stop  offset="0" style="stop-color:#8B0B0B"/>
		<stop  offset="1" style="stop-color:#EC4444"/>
	</linearGradient>
	<path fill="url(#SVGID_5_)" d="M10.058,14.325c2.721-5.481,1.92-9.797,6.948-10.639C11.824,4.609,12.666,10.821,10.058,14.325"/>
	
		<linearGradient id="SVGID_6_" gradientUnits="userSpaceOnUse" x1="219.3394" y1="-565.6943" x2="223.9794" y2="-570.7536" gradientTransform="matrix(-0.2481 -1.0513 -0.9687 0.2693 -476.0908 392.1025)">
		<stop  offset="0" style="stop-color:#8B0B0B"/>
		<stop  offset="1" style="stop-color:#EC4444"/>
	</linearGradient>
	<path fill="url(#SVGID_6_)" d="M16.907,10.65c1.49-1.562,1.028-6.736,4.843-7.311c-3.888,1.37-2.722,4.462-4.566,7.24"/>
	
		<linearGradient id="SVGID_7_" gradientUnits="userSpaceOnUse" x1="210.6631" y1="-570.9336" x2="217.2334" y2="-570.9336" gradientTransform="matrix(-0.2481 -1.0513 -0.9687 0.2693 -476.0908 392.1025)">
		<stop  offset="0" style="stop-color:#8B0B0B"/>
		<stop  offset="1" style="stop-color:#EC4444"/>
	</linearGradient>
	<path fill="url(#SVGID_7_)" d="M16.916,11.743c3.953,1.03,10.096,4.997,13.966,3.433C26.657,16.98,20.277,12.544,16.916,11.743"/>
	
		<linearGradient id="SVGID_8_" gradientUnits="userSpaceOnUse" x1="203.4546" y1="-574.1904" x2="212.4727" y2="-574.1904" gradientTransform="matrix(-0.2481 -1.0513 -0.9687 0.2693 -476.0908 392.1025)">
		<stop  offset="0" style="stop-color:#EC4444"/>
		<stop  offset="0.2577" style="stop-color:#FBD0D0"/>
		<stop  offset="1" style="stop-color:#EC4444"/>
	</linearGradient>
	<path fill="url(#SVGID_8_)" d="M14.381,25.937c11.878,4.007,14.711-12.347,27.904-15.871
		C28.916,12.926,27.321,28.666,14.381,25.937z"/>
	
		<linearGradient id="SVGID_9_" gradientUnits="userSpaceOnUse" x1="348.249" y1="-554.6841" x2="361.6074" y2="-554.6841" gradientTransform="matrix(-0.1182 -1.0778 -0.9929 0.1284 -499.5498 463.7871)">
		<stop  offset="0" style="stop-color:#AC1010"/>
		<stop  offset="0.7143" style="stop-color:#FBD0D0"/>
		<stop  offset="1" style="stop-color:#EC4444"/>
	</linearGradient>
	<path fill="url(#SVGID_9_)" d="M5.184,17.832c0,0-1.166-10.631,8.113-15.65C4.536,8.455,5.184,17.832,5.184,17.832z"/>
</g>
</svg>
